<?xml version="1.0" encoding="utf-8"?>
<!-- Generator: Adobe Illustrator 20.1.0, SVG Export Plug-In . SVG Version: 6.00 Build 0)  -->
<svg version="1.1" id="Layer_1" xmlns="http://www.w3.org/2000/svg" xmlns:xlink="http://www.w3.org/1999/xlink" x="0px" y="0px"
	 viewBox="0 0 32 32" style="enable-background:new 0 0 32 32;" xml:space="preserve">
<style type="text/css">
	.st0{fill:#99D4BF;stroke:#99D4BF;stroke-miterlimit:10;}
	.st1{fill:#99D4BF;}
</style>
<path class="st0" d="M16,31C7.7,31,1,24.3,1,16C1,7.7,7.7,1,16,1s15,6.7,15,15C31,24.3,24.3,31,16,31z M16,1.7
	C8.1,1.7,1.7,8.1,1.7,16c0,7.9,6.4,14.3,14.3,14.3S30.3,23.9,30.3,16C30.3,8.1,23.9,1.7,16,1.7z"/>
<path class="st1" d="M15.5,12.7c0.2,0.3,0.4,0.8,0.4,1.2c0,0.5-0.1,0.9-0.4,1.2c-0.1,0.2-0.3,0.3-0.6,0.5c0.4,0.2,0.7,0.4,0.9,0.7
	c0.2,0.3,0.3,0.7,0.3,1.2c0,0.5-0.1,0.9-0.4,1.3c-0.2,0.3-0.3,0.5-0.6,0.6c-0.3,0.2-0.6,0.3-0.9,0.4c-0.4,0.1-0.7,0.1-1.2,0.1H9.4
	v-8.1h3.9C14.4,11.8,15.1,12.1,15.5,12.7z M11.1,13.2V15h2c0.4,0,0.6-0.1,0.9-0.2c0.2-0.1,0.3-0.4,0.3-0.7c0-0.4-0.1-0.6-0.4-0.8
	c-0.3-0.1-0.6-0.1-1-0.1H11.1z M11.1,16.4v2.2h2c0.4,0,0.6,0,0.8-0.1c0.4-0.2,0.5-0.5,0.5-1c0-0.4-0.2-0.7-0.5-0.9
	c-0.2-0.1-0.5-0.1-0.8-0.1H11.1z M21,14.1c0.4,0.2,0.8,0.5,1,0.9c0.2,0.4,0.4,0.8,0.5,1.2c0,0.3,0.1,0.7,0.1,1.2h-4.4
	c0,0.6,0.2,1,0.6,1.3c0.2,0.2,0.5,0.2,0.9,0.2c0.4,0,0.6-0.1,0.9-0.3c0.1-0.1,0.2-0.2,0.3-0.4h1.6c0,0.4-0.2,0.7-0.6,1.1
	c-0.5,0.6-1.3,0.9-2.3,0.9c-0.8,0-1.5-0.2-2.1-0.7c-0.6-0.5-0.9-1.3-0.9-2.4c0-1,0.3-1.8,0.8-2.4c0.6-0.6,1.3-0.8,2.2-0.8
	C20.1,13.8,20.6,13.9,21,14.1z M18.7,15.4c-0.2,0.2-0.4,0.5-0.4,0.9H21c0-0.4-0.2-0.7-0.4-1c-0.3-0.2-0.6-0.3-0.9-0.3
	C19.2,15.1,18.9,15.2,18.7,15.4z M21.3,12.2h-3.5v1h3.5V12.2z"/>
</svg>
