<?xml version="1.0" encoding="utf-8"?>
<!-- Generator: Adobe Illustrator 20.1.0, SVG Export Plug-In . SVG Version: 6.00 Build 0)  -->
<svg version="1.1" id="Layer_1" xmlns="http://www.w3.org/2000/svg" xmlns:xlink="http://www.w3.org/1999/xlink" x="0px" y="0px"
	 viewBox="0 0 32 32" style="enable-background:new 0 0 32 32;" xml:space="preserve">
<style type="text/css">
	.st0{fill:#FFFFFF;stroke:#FFFFFF;stroke-miterlimit:10;}
	.st1{fill:#FFFFFF;}
</style>
<path class="st0" d="M16,31C7.7,31,1,24.3,1,16S7.7,1,16,1c8.3,0,15,6.7,15,15S24.3,31,16,31z M16,1.7C8.1,1.7,1.7,8.1,1.7,16
	S8.1,30.3,16,30.3c7.9,0,14.3-6.4,14.3-14.3S23.9,1.7,16,1.7z"/>
<path class="st1" d="M12.8,13.8h1.4v-1.3c0-0.6,0-1.5,0.4-2c0.4-0.6,1.1-1,2.1-1c1.7,0,2.4,0.2,2.4,0.2l-0.3,2c0,0-0.6-0.2-1.1-0.2
	c-0.5,0-1,0.2-1,0.7v1.5h2.2l-0.2,2h-2v6.8h-2.6v-6.8h-1.4V13.8z"/>
</svg>
