<?xml version="1.0" encoding="utf-8"?>
<!-- Generator: Adobe Illustrator 20.1.0, SVG Export Plug-In . SVG Version: 6.00 Build 0)  -->
<svg version="1.1" id="Layer_1" xmlns="http://www.w3.org/2000/svg" xmlns:xlink="http://www.w3.org/1999/xlink" x="0px" y="0px"
	 viewBox="0 0 32 32" style="enable-background:new 0 0 32 32;" xml:space="preserve">
<style type="text/css">
	.st0{fill:#FFFFFF;stroke:#FFFFFF;stroke-miterlimit:10;}
	.st1{fill:#FFFFFF;}
</style>
<path class="st0" d="M16.1,31c-8.3,0-15-6.7-15-15s6.7-15,15-15c8.3,0,15,6.7,15,15S24.3,31,16.1,31z M16.1,1.7
	C8.2,1.7,1.8,8.1,1.8,16s6.4,14.3,14.3,14.3S30.3,23.9,30.3,16S23.9,1.7,16.1,1.7z"/>
<path class="st1" d="M20.1,9.4H12c-1.4,0-2.5,1.1-2.5,2.5v2.7V20c0,1.4,1.1,2.5,2.5,2.5h8.1c1.4,0,2.5-1.1,2.5-2.5v-5.4V12
	C22.6,10.6,21.5,9.4,20.1,9.4z M20.8,10.9l0.3,0v0.3v1.9l-2.2,0l0-2.2L20.8,10.9z M14.2,14.6c0.4-0.6,1.1-1,1.9-1
	c0.8,0,1.5,0.4,1.9,1c0.3,0.4,0.4,0.8,0.4,1.4c0,1.3-1,2.3-2.3,2.3c-1.3,0-2.3-1-2.3-2.3C13.7,15.5,13.9,15,14.2,14.6z M21.4,20
	c0,0.7-0.6,1.3-1.3,1.3H12c-0.7,0-1.3-0.6-1.3-1.3v-5.4h2c-0.2,0.4-0.3,0.9-0.3,1.4c0,2,1.6,3.6,3.6,3.6c2,0,3.6-1.6,3.6-3.6
	c0-0.5-0.1-0.9-0.3-1.4h2V20z"/>
</svg>
