<?xml version="1.0" encoding="utf-8"?>
<!-- Generator: Adobe Illustrator 20.1.0, SVG Export Plug-In . SVG Version: 6.00 Build 0)  -->
<svg version="1.1" id="Layer_1" xmlns="http://www.w3.org/2000/svg" xmlns:xlink="http://www.w3.org/1999/xlink" x="0px" y="0px"
	 viewBox="0 0 32 32" style="enable-background:new 0 0 32 32;" xml:space="preserve">
<style type="text/css">
	.st0{fill:#99D4BF;stroke:#99D4BF;stroke-miterlimit:10;}
</style>
<g>
	<path class="st0" d="M16,31C7.7,31,1,24.3,1,16S7.7,1,16,1c8.3,0,15,6.7,15,15S24.3,31,16,31z M16,1.7C8.1,1.7,1.7,8.1,1.7,16
		S8.1,30.3,16,30.3c7.9,0,14.3-6.4,14.3-14.3S23.9,1.7,16,1.7z"/>
	<path class="st0" d="M22.6,12.6c-0.5,0.2-1,0.4-1.6,0.4c0.6-0.3,1-0.9,1.2-1.5c-0.5,0.3-1.1,0.5-1.7,0.7c-0.5-0.5-1.2-0.9-2-0.9
		c-1.5,0-2.7,1.2-2.7,2.7c0,0.2,0,0.4,0.1,0.6c-2.2-0.1-4.2-1.2-5.6-2.8c-0.2,0.4-0.4,0.9-0.4,1.4c0,0.9,0.5,1.8,1.2,2.2
		c-0.4,0-0.9-0.1-1.2-0.3v0c0,1.3,0.9,2.4,2.2,2.6c-0.2,0.1-0.5,0.1-0.7,0.1c-0.2,0-0.3,0-0.5,0c0.3,1.1,1.3,1.9,2.5,1.9
		c-0.9,0.7-2.1,1.2-3.4,1.2c-0.2,0-0.4,0-0.6,0c1.2,0.8,2.6,1.2,4.1,1.2c5,0,7.7-4.1,7.7-7.7c0-0.1,0-0.2,0-0.3
		C21.8,13.6,22.2,13.2,22.6,12.6"/>
</g>
</svg>
