<?xml version="1.0" encoding="utf-8"?>
<!-- Generator: Adobe Illustrator 20.1.0, SVG Export Plug-In . SVG Version: 6.00 Build 0)  -->
<svg version="1.1" id="Layer_1" xmlns="http://www.w3.org/2000/svg" xmlns:xlink="http://www.w3.org/1999/xlink" x="0px" y="0px"
	 viewBox="0 0 32 32" style="enable-background:new 0 0 32 32;" xml:space="preserve">
<style type="text/css">
	.st0{fill:#FFFFFF;stroke:#FFFFFF;stroke-miterlimit:10;}
	.st1{fill:#FFFFFF;}
</style>
<path class="st0" d="M16,31C7.7,31,1,24.3,1,16C1,7.7,7.7,1,16,1c8.3,0,15,6.7,15,15C31,24.3,24.3,31,16,31z M16,1.7
	C8.1,1.7,1.7,8.1,1.7,16c0,7.9,6.4,14.3,14.3,14.3c7.9,0,14.3-6.4,14.3-14.3C30.3,8.1,23.9,1.7,16,1.7z"/>
<path class="st1" d="M18.6,16l-4.3,2.5v-5.1L18.6,16z M22.6,18.4v-4.7c0,0,0-2.3-2.3-2.3h-8.6c0,0-2.3,0-2.3,2.3v4.7
	c0,0,0,2.3,2.3,2.3h8.6C20.3,20.6,22.6,20.6,22.6,18.4"/>
</svg>
